<svg xmlns="http://www.w3.org/2000/svg" xmlns:xlink="http://www.w3.org/1999/xlink" width="172" height="41.02" viewBox="0 0 172 41.02"><defs><style>.a,.c{fill:#fff;}.a{stroke:#707070;}.b{clip-path:url(#a);}.d{clip-path:url(#b);}</style><clipPath id="a"><rect class="a" width="172" height="41.02" transform="translate(74 123)"/></clipPath><clipPath id="b"><path d="M19.674,47.471V38.855A14.187,14.187,0,0,0,33.283,28.1c.086.021.171.064.236.086.021,0,.021.021.043.021a10.416,10.416,0,0,1,2.079,1.179,9.931,9.931,0,0,1,4.115,7.737A10.079,10.079,0,0,1,29.7,47.471H19.674M9.494,14.681h0l9.816-.021a10.254,10.254,0,0,1,10.18,8.615h-20ZM5.422,10.566h0L5.4,23.3v4.072a.021.021,0,0,0,.021.021H29.254a10.1,10.1,0,0,1-9.687,7.394H15.6a.021.021,0,0,0-.021.021V51.564a.021.021,0,0,0,.021.021H29.726A14.092,14.092,0,0,0,36.112,24.9h-.021a5.131,5.131,0,0,0-.6-.279c-.021,0-.021,0-.043-.021l-.579-.257c-.021,0-.043-.021-.064-.021-.193-.064-.386-.15-.557-.214-.043-.021-.064-.021-.107-.043-.15-.043-.3-.107-.471-.15a14.359,14.359,0,0,0-14.4-13.352H5.422Z" transform="translate(-5.401 -10.566)"/></clipPath></defs><g class="b" transform="translate(-74 -123)"><g transform="translate(69.355 112.434)"><path class="c" d="M19.674,47.471V38.855A14.187,14.187,0,0,0,33.283,28.1c.086.021.171.064.236.086.021,0,.021.021.043.021a10.416,10.416,0,0,1,2.079,1.179,9.931,9.931,0,0,1,4.115,7.737A10.079,10.079,0,0,1,29.7,47.471H19.674M9.494,14.681h0l9.816-.021a10.254,10.254,0,0,1,10.18,8.615h-20ZM5.422,10.566h0L5.4,23.3v4.072a.021.021,0,0,0,.021.021H29.254a10.1,10.1,0,0,1-9.687,7.394H15.6a.021.021,0,0,0-.021.021V51.564a.021.021,0,0,0,.021.021H29.726A14.092,14.092,0,0,0,36.112,24.9h-.021a5.131,5.131,0,0,0-.6-.279c-.021,0-.021,0-.043-.021l-.579-.257c-.021,0-.043-.021-.064-.021-.193-.064-.386-.15-.557-.214-.043-.021-.064-.021-.107-.043-.15-.043-.3-.107-.471-.15a14.359,14.359,0,0,0-14.4-13.352H5.422Z"/><g class="d" transform="translate(5.401 10.566)"><rect class="c" width="38.641" height="41.02"/></g><path class="c" d="M53.022,42.5V18.388H58.38v8.658a5.112,5.112,0,0,1,2.036-1.222,7.62,7.62,0,0,1,2.55-.45,7.31,7.31,0,0,1,4.222,1.2,7.69,7.69,0,0,1,2.636,3.193,11.121,11.121,0,0,1-.279,9.366,8.32,8.32,0,0,1-3.472,3.408,11.58,11.58,0,0,1-5.529,1.222,20.6,20.6,0,0,1-4.222-.407,26.533,26.533,0,0,1-3.3-.857m5.336-8.958V38.92a5.738,5.738,0,0,0,1.007.257,8.731,8.731,0,0,0,1.479.107,4.09,4.09,0,0,0,3.279-1.372,5.32,5.32,0,0,0,1.179-3.6,6.133,6.133,0,0,0-.343-2.079,3.71,3.71,0,0,0-1.114-1.65,3.009,3.009,0,0,0-1.993-.643,3.247,3.247,0,0,0-2.636.986,3.916,3.916,0,0,0-.857,2.615"/><path class="c" d="M87.762,37.891l2.186,3.386c-.257.171-.686.45-1.329.857a10.716,10.716,0,0,1-2.507,1.114,12.4,12.4,0,0,1-3.836.514,10.7,10.7,0,0,1-5.122-1.179,8.157,8.157,0,0,1-3.3-3.3,10.629,10.629,0,0,1-.107-9.43,8.442,8.442,0,0,1,3.086-3.408,8.83,8.83,0,0,1,4.844-1.286,8.269,8.269,0,0,1,4.736,1.286,7.859,7.859,0,0,1,2.893,3.536,12.723,12.723,0,0,1,.986,5.186v.9H77.882a3.287,3.287,0,0,0,1.264,2.443,4.783,4.783,0,0,0,3.3,1.072,8.031,8.031,0,0,0,3.386-.622,10.124,10.124,0,0,0,1.929-1.072m-9.837-5.272h7.351a3.255,3.255,0,0,0-.386-1.5,3.377,3.377,0,0,0-1.179-1.286,3.678,3.678,0,0,0-2.036-.514,3.856,3.856,0,0,0-2.057.514,3.457,3.457,0,0,0-1.264,1.286,2.863,2.863,0,0,0-.429,1.5"/><path class="c" d="M93.034,43.163V25.739h5.122l.15,1.886a6.339,6.339,0,0,1,2.272-1.672,6.9,6.9,0,0,1,2.893-.622,6.5,6.5,0,0,1,4.758,1.779,7.227,7.227,0,0,1,1.779,5.272v10.78H104.65V33.133a3.445,3.445,0,0,0-.729-2.315,2.506,2.506,0,0,0-2.036-.857,3.179,3.179,0,0,0-2.658,1.157,4.212,4.212,0,0,0-.9,2.679v9.366Z"/><path class="c" d="M112.73,34.441a9.288,9.288,0,0,1,1.179-4.672,8.983,8.983,0,0,1,3.279-3.365,10.226,10.226,0,0,1,9.773,0,8.983,8.983,0,0,1,3.279,3.365,9.633,9.633,0,0,1,1.179,4.672,9.288,9.288,0,0,1-1.179,4.672,8.73,8.73,0,0,1-3.279,3.386,10.074,10.074,0,0,1-9.773,0,9.04,9.04,0,0,1-3.279-3.386,9.513,9.513,0,0,1-1.179-4.672m9.366,4.672a3.771,3.771,0,0,0,2.293-.664,4.436,4.436,0,0,0,1.393-1.736,5.556,5.556,0,0,0,.493-2.272,5.384,5.384,0,0,0-.493-2.25,4.436,4.436,0,0,0-1.393-1.736,3.728,3.728,0,0,0-2.293-.664,3.86,3.86,0,0,0-2.293.664,4.356,4.356,0,0,0-1.436,1.736,5.384,5.384,0,0,0-.493,2.25,5.557,5.557,0,0,0,.493,2.272,3.94,3.94,0,0,0,3.729,2.4"/><path class="c" d="M138.855,43.163,131.5,25.739h5.937l4.136,11.444,3.965-11.444h5.851l-7.48,17.424Z"/><path class="c" d="M163.051,43.163l-.15-1.629a6.6,6.6,0,0,1-5.272,2.165,7.833,7.833,0,0,1-2.593-.471,4.993,4.993,0,0,1-2.315-1.65,5.066,5.066,0,0,1-.964-3.279,5.552,5.552,0,0,1,1.05-3.45,6.648,6.648,0,0,1,2.872-2.143,10.8,10.8,0,0,1,4.093-.729c.622,0,1.243.021,1.886.043a8.35,8.35,0,0,1,1.243.107v-.364a2,2,0,0,0-1.029-1.907,4.639,4.639,0,0,0-2.315-.579,8.375,8.375,0,0,0-2.936.45,9.289,9.289,0,0,0-2.015,1.007l-2.186-3.279a11.566,11.566,0,0,1,2.936-1.586,13.718,13.718,0,0,1,4.951-.729c2.658,0,4.608.707,5.872,2.143a8.322,8.322,0,0,1,1.886,5.744V43.163h-5.015Zm-.15-6.279V35.469a6.236,6.236,0,0,0-.707-.086,9.768,9.768,0,0,0-1.179-.064,5.947,5.947,0,0,0-3.15.622,2.018,2.018,0,0,0-.922,1.779c0,1.436.857,2.165,2.593,2.165a3.852,3.852,0,0,0,2.315-.772,2.587,2.587,0,0,0,1.05-2.229"/><path class="c" d="M173.424,43.163a2.687,2.687,0,0,1-1.264-.3,2.254,2.254,0,0,1-.879-.857,2.69,2.69,0,0,1,0-2.55,2.408,2.408,0,0,1,.879-.857,2.508,2.508,0,0,1,1.264-.3,2.687,2.687,0,0,1,1.264.3,2.408,2.408,0,0,1,.879.857,2.49,2.49,0,0,1,.321,1.286,2.336,2.336,0,0,1-1.2,2.122,2.354,2.354,0,0,1-1.264.3m0-.622a1.9,1.9,0,0,0,.922-.236,1.633,1.633,0,0,0,.622-.643,1.922,1.922,0,0,0,.236-.943,1.831,1.831,0,0,0-.493-1.307,1.679,1.679,0,0,0-1.264-.493,1.692,1.692,0,0,0-1.757,1.8,1.922,1.922,0,0,0,.236.943,1.633,1.633,0,0,0,.622.643,1.68,1.68,0,0,0,.879.236m-.857-.707V39.455h.986a.858.858,0,0,1,.579.193.7.7,0,0,1,.236.536.792.792,0,0,1-.129.45.62.62,0,0,1-.321.257l.579.922h-.622l-.536-.836H173.1v.836h-.536Zm.557-1.286h.279c.279,0,.407-.107.407-.321a.3.3,0,0,0-.321-.321h-.364Z"/></g></g></svg>